<?xml version="1.0" encoding="UTF-8" standalone="no"?>
<!-- Created with Inkscape (http://www.inkscape.org/) -->

<svg
   width="210mm"
   height="297mm"
   viewBox="0 0 210 297"
   version="1.1"
   id="svg1"
   inkscape:version="1.4.3 (0d15f75, 2025-12-25)"
   sodipodi:docname="eagle_idle.svg"
   inkscape:export-filename="eagle_idle.svg"
   inkscape:export-xdpi="96"
   inkscape:export-ydpi="96"
   xmlns:inkscape="http://www.inkscape.org/namespaces/inkscape"
   xmlns:sodipodi="http://sodipodi.sourceforge.net/DTD/sodipodi-0.dtd"
   xmlns="http://www.w3.org/2000/svg"
   xmlns:svg="http://www.w3.org/2000/svg">
  <sodipodi:namedview
     id="namedview1"
     pagecolor="#ffffff"
     bordercolor="#000000"
     borderopacity="0.25"
     inkscape:showpageshadow="2"
     inkscape:pageopacity="0.0"
     inkscape:pagecheckerboard="0"
     inkscape:deskcolor="#d1d1d1"
     inkscape:document-units="mm"
     inkscape:zoom="0.87434031"
     inkscape:cx="164.6956"
     inkscape:cy="418.02945"
     inkscape:window-width="845"
     inkscape:window-height="821"
     inkscape:window-x="236"
     inkscape:window-y="181"
     inkscape:window-maximized="0"
     inkscape:current-layer="layer1" />
  <defs
     id="defs1" />
  <g
     inkscape:label="Layer 1"
     inkscape:groupmode="layer"
     id="layer1"
     transform="translate(0.6052182,-2.1182637)">
    <ellipse
       style="fill:#282824;fill-opacity:0.124352;stroke-width:0.65729"
       id="path13-12"
       cx="93.774651"
       cy="165.21794"
       rx="45.885067"
       ry="4.9808106"
       inkscape:label="Shadow" />
    <g
       inkscape:groupmode="layer"
       id="layer4"
       inkscape:label="Legs">
      <ellipse
         style="fill:#f9ee62;fill-opacity:1;stroke-width:0.444099"
         id="path10-3"
         cx="-150.61006"
         cy="72.784698"
         rx="7.9624386"
         ry="16.485136"
         transform="matrix(-0.02624461,-0.99965555,0.99980406,-0.01979438,0,0)"
         inkscape:label="FootL" />
      <ellipse
         style="fill:#f9ee62;fill-opacity:1;stroke-width:0.396483"
         id="path10-8-41"
         cx="-152.05688"
         cy="107.31483"
         rx="7.2322521"
         ry="14.466076"
         transform="matrix(-0.03225842,-0.99947955,0.99970394,-0.024332,0,0)"
         inkscape:label="FootR" />
    </g>
    <g
       inkscape:groupmode="layer"
       id="layer5"
       inkscape:label="Body">
      <ellipse
         style="fill:#af6a3c;fill-opacity:1;stroke-width:0.352212"
         id="path9-1"
         cx="94.039803"
         cy="115.54292"
         rx="32.324234"
         ry="33.427906"
         inkscape:label="body" />
      <ellipse
         style="fill:#af6a3c;fill-opacity:1;stroke-width:0.442607"
         id="path10-1-93"
         cx="-87.688904"
         cy="-99.935539"
         rx="9.126194"
         ry="14.286432"
         transform="matrix(-0.98570161,-0.1685002,0.22107357,-0.97525713,0,0)"
         inkscape:transform-center-x="-0.49874741"
         inkscape:transform-center-y="-1.5158991"
         inkscape:label="ArmL" />
      <ellipse
         style="fill:#af6a3c;fill-opacity:1;stroke-width:0.443167"
         id="path10-1-9-19"
         cx="72.941849"
         cy="144.06396"
         rx="9.0413809"
         ry="14.456962"
         transform="matrix(0.95564836,-0.29451014,0.37829318,0.92568583,0,0)"
         inkscape:label="ArmR" />
      <path
         style="fill:#fff5cd;fill-opacity:1;stroke-width:0.65729"
         d="m 76.757712,87.209995 c 0,0 -13.823411,4.205303 -13.207077,4.128838 0.616335,-0.0764 12.766838,-0.0764 12.766838,-0.0764 0,0 -10.037376,8.945817 -9.068853,8.410606 0.968518,-0.535233 11.974411,-5.734489 11.974411,-5.734489 0,0 1.937035,11.85128 2.28922,11.62191 0.352213,-0.22942 5.458946,-9.633957 5.458946,-9.633957 l 5.370865,9.557497 6.515503,-8.334148 1.848985,8.716448 3.3458,-9.09875 9.86128,7.646 c 0,0 -4.66652,-10.62793 -4.13823,-10.322093 0.52829,0.305837 12.59074,5.734489 12.59074,5.734489 l -8.9808,-9.481025 h 13.38316 l -14.52777,-3.28779 -3.69799,3.211325 -5.45892,2.981931 -7.131821,1.299837 -8.364484,-0.917535 -5.635025,-2.752558 z"
         id="path40-5"
         inkscape:label="Neck feather" />
    </g>
    <g
       inkscape:groupmode="layer"
       id="layer6"
       inkscape:label="Head">
      <ellipse
         style="fill:#fff5cd;fill-opacity:1;stroke-width:0.405412"
         id="path11-3"
         cx="94.602234"
         cy="76.45993"
         rx="21.721367"
         ry="18.51618"
         inkscape:label="head" />
      <ellipse
         style="fill:#ffffff;fill-opacity:1;stroke-width:0.523941"
         id="path15-8"
         cx="85.626938"
         cy="72.155937"
         rx="7.613059"
         ry="8.5738506"
         inkscape:label="white eyeL" />
      <ellipse
         style="fill:#181818;fill-opacity:1;stroke-width:0.65729"
         id="path16-4"
         cx="85.011749"
         cy="72.350006"
         rx="4.5202537"
         ry="5.0616708"
         inkscape:label="black spotL" />
      <ellipse
         style="fill:#fafafa;fill-opacity:1;stroke-width:0.535383"
         id="path18-7"
         cx="84.442245"
         cy="71.952538"
         rx="1.9627417"
         ry="1.7819148"
         inkscape:label="tiny white spotL" />
      <ellipse
         style="fill:#ffffff;fill-opacity:1;stroke-width:0.523941"
         id="path15-2-7"
         cx="103.17861"
         cy="72.547188"
         rx="7.613059"
         ry="8.5738506"
         inkscape:label="white eyeR" />
      <ellipse
         style="fill:#181818;fill-opacity:1;stroke-width:0.65729"
         id="path16-2-2"
         cx="103.50504"
         cy="72.721901"
         rx="4.5202537"
         ry="5.0616708"
         inkscape:label="black spotR" />
      <ellipse
         style="fill:#fafafa;fill-opacity:1;stroke-width:0.511577"
         id="path18-6-7"
         cx="103.2461"
         cy="72.342873"
         rx="1.9627417"
         ry="1.6269658"
         inkscape:label="tiny white spotR" />
    </g>
    <g
       inkscape:groupmode="layer"
       id="layer7"
       inkscape:label="Mouth">
      <path
         style="fill:#e8c53b;fill-opacity:1;stroke-width:0.554877"
         d="m 87.812886,84.16542 5.239573,2.226216 6.018427,-2.53541 z"
         id="path38-8"
         inkscape:label="Beak lower" />
      <path
         style="fill:#fcd746;fill-opacity:1;stroke-width:0.65729"
         d="m 86.70877,84.345089 5.929975,-3.798276 7.191696,3.469589 z"
         id="path39-6"
         inkscape:label="Beak upper" />
    </g>
  </g>
</svg>
